# Blender v2.92.0 OBJ File: ''
# www.blender.org
o Arrow
v -0.045369 0.000000 -0.117683
v 0.045369 0.000000 -0.117683
v 0.045369 -0.000000 0.117683
v -0.045369 -0.000000 0.117683
v 0.045369 0.533356 0.117683
v 0.045369 0.533356 -0.117683
v 0.045369 0.533356 -0.196657
v 0.045369 0.949778 0.001661
v 0.045369 0.533356 0.196657
v -0.045369 0.949778 0.001661
v -0.045369 0.533356 -0.196657
v -0.045369 0.533356 -0.117683
v -0.045369 0.533356 0.117683
v -0.045369 0.533356 0.196657
vt 0.913738 0.465065
vt 0.835603 0.667739
vt 0.835603 0.465065
vt 0.272671 0.360381
vt 0.069997 0.360381
vt 0.172764 0.001800
vt 0.941759 0.001800
vt 0.863624 0.360381
vt 0.863624 0.001800
vt 0.415157 0.461074
vt 0.617831 0.461074
vt 0.517923 0.819655
vt 0.692116 0.001800
vt 0.770251 0.461074
vt 0.692116 0.461074
vt 0.777870 0.001800
vt 0.856005 0.461074
vt 0.777870 0.461074
vt 0.919873 0.364373
vt 0.998008 0.722954
vt 0.919873 0.722954
vt 0.761463 0.465065
vt 0.829468 0.543200
vt 0.761463 0.543200
vt 0.755328 0.901781
vt 0.687323 0.823647
vt 0.755328 0.823647
vt 0.913738 0.667739
vt 0.272671 0.819655
vt 0.069997 0.819655
vt 0.001992 0.360381
vt 0.340676 0.360381
vt 0.941759 0.360381
vt 0.415157 0.001800
vt 0.617831 0.001800
vt 0.685835 0.461074
vt 0.347152 0.461074
vt 0.770251 0.001800
vt 0.856005 0.001800
vt 0.998008 0.364373
vt 0.829468 0.465065
vt 0.687323 0.901781
vn 0.0000 -1.0000 -0.0000
vn 1.0000 -0.0000 0.0000
vn -0.0000 0.4593 -0.8883
vn 0.0000 0.4214 -0.9069
vn -1.0000 -0.0000 0.0000
vn 0.0000 0.0000 -1.0000
vn 0.0000 -0.0000 1.0000
vn 0.0000 0.4214 0.9069
vn -0.0000 0.4333 0.9012
usemtl Default_OBJ
s 1
f 2/1/1 4/2/1 1/3/1
f 5/4/2 6/5/2 8/6/2
f 8/7/3 11/8/4 10/9/3
f 12/10/5 13/11/5 10/12/5
f 12/13/6 2/14/6 1/15/6
f 4/16/7 5/17/7 13/18/7
f 14/19/8 8/20/9 10/21/9
f 5/22/1 14/23/1 13/24/1
f 12/25/1 7/26/1 6/27/1
f 2/1/1 3/28/1 4/2/1
f 5/4/2 3/29/2 2/30/2
f 6/5/2 7/31/2 8/6/2
f 5/4/2 2/30/2 6/5/2
f 8/6/2 9/32/2 5/4/2
f 8/7/3 7/33/4 11/8/4
f 12/10/5 1/34/5 4/35/5
f 13/11/5 14/36/5 10/12/5
f 12/10/5 4/35/5 13/11/5
f 10/12/5 11/37/5 12/10/5
f 12/13/6 6/38/6 2/14/6
f 4/16/7 3/39/7 5/17/7
f 14/19/8 9/40/8 8/20/9
f 5/22/1 9/41/1 14/23/1
f 12/25/1 11/42/1 7/26/1
